<svg data-v-526eca14="" xmlns="http://www.w3.org/2000/svg" width="20" height="20" viewBox="0 0 20 20" fill="none"><path data-v-526eca14="" fill-rule="evenodd" clip-rule="evenodd" d="M18 10.1889C18 9.59801 17.947 9.02983 17.8485 8.48438H10V11.7079H14.4848C14.2917 12.7495 13.7045 13.6321 12.822 14.223V16.3139H15.5152C17.0909 14.8632 18 12.7268 18 10.1889Z" fill="#4285F4"></path> <path data-v-526eca14="" fill-rule="evenodd" clip-rule="evenodd" d="M9.9997 18.332C12.2497 18.332 14.1361 17.5858 15.5149 16.3131L12.8217 14.2222C12.0755 14.7222 11.1209 15.0176 9.9997 15.0176C7.82925 15.0176 5.99213 13.5517 5.33683 11.582H2.55273V13.7411C3.92395 16.4646 6.74213 18.332 9.9997 18.332Z" fill="#34A853"></path> <path data-v-526eca14="" fill-rule="evenodd" clip-rule="evenodd" d="M5.33647 11.5816C5.1698 11.0816 5.07511 10.5475 5.07511 9.99828C5.07511 9.44904 5.1698 8.91495 5.33647 8.41495V6.25586H2.55238C1.98799 7.38086 1.66602 8.65359 1.66602 9.99828C1.66602 11.343 1.98799 12.6157 2.55238 13.7407L5.33647 11.5816Z" fill="#FBBC05"></path> <path data-v-526eca14="" fill-rule="evenodd" clip-rule="evenodd" d="M9.9997 4.98041C11.2232 4.98041 12.3217 5.40086 13.1853 6.22662L15.5755 3.83647C14.1323 2.49177 12.2459 1.66602 9.9997 1.66602C6.74213 1.66602 3.92395 3.53344 2.55273 6.25692L5.33683 8.41602C5.99213 6.44632 7.82925 4.98041 9.9997 4.98041Z" fill="#EA4335"></path></svg>