<svg xmlns="http://www.w3.org/2000/svg" xml:space="preserve" width="2048" height="2048" style="shape-rendering:geometricPrecision;text-rendering:geometricPrecision;image-rendering:optimizeQuality;fill-rule:evenodd;clip-rule:evenodd"><defs><style>.fil1{fill:#fffffe}</style></defs><g id="Layer_x0020_1"><circle cx="1024" cy="1024" r="1024" style="fill:#66bb6a"/><g id="_374909640"><path id="_374910504" class="fil1" d="M635.716 1109.46V868.564h-69.388c-12.773 0-23.129 10.357-23.129 23.13v439.448c0 12.774 10.356 23.13 23.13 23.13h925.155c12.774 0 23.13-10.356 23.13-23.13v-40.077c-15.42.085-30.839.203-46.26.343l-11.027.102c-113.637 1.087-235.028 2.547-354.702-8.049h-412.01c-6.386 0-11.565-5.179-11.565-11.565 0-8.633-3.541-16.49-9.244-22.193-5.702-5.702-13.56-9.243-22.193-9.243-6.386 0-11.565-5.18-11.565-11.566v-113.883l-.001-.01a46.378 46.378 0 0 1-.331-5.54z"/><path id="_374910456" class="fil1" d="M941.188 1260.34c-93.93-19.526-183.919-50.634-264.955-99.901l-.278.425-16.778-11.025v68.738c10.396 2.263 19.708 7.507 26.98 14.782 7.275 7.273 12.52 16.585 14.782 26.98h240.248z"/><path id="_374910744" class="fil1" d="M520.07 949.21h-32.942c-12.774 0-23.13 10.356-23.13 23.13v439.45c0 12.772 10.356 23.128 23.13 23.128h925.156c12.773 0 23.13-10.356 23.13-23.128v-34.385H566.327c-25.539 0-46.258-20.719-46.258-46.259V949.21z"/><path id="_374910840" class="fil1" d="M797.701 751.596c179.47 90.873 390.521 89.804 590.657 88.786 25.468-.129 50.871-.259 62.682-.259 6.387 0 11.566 5.178 11.566 11.564 0 8.33 3.417 15.912 8.92 21.415 5.502 5.503 13.085 8.92 21.413 8.92 6.386 0 11.565 5.178 11.565 11.564v228.93c0 6.386-5.179 11.564-11.565 11.564-8.328 0-15.91 3.418-21.414 8.921-5.502 5.503-8.92 13.085-8.92 21.413 0 6.387-5.178 11.565-11.565 11.565l-.621-.017-4.688.14c-219.605 6.608-457.275 13.757-659.253-91.619l-.022.042a11.564 11.564 0 0 1-6.216-10.358c-.03-8.287-3.44-15.829-8.92-21.308-5.503-5.504-13.084-8.92-21.413-8.92-6.387 0-11.565-5.179-11.565-11.565v-228.93c0-6.386 5.178-11.564 11.565-11.564 8.329 0 15.91-3.418 21.413-8.921 5.503-5.503 8.92-13.084 8.92-21.413 0-6.387 5.179-11.565 11.565-11.565 2.154 0 4.17.59 5.896 1.615zM1584 1244.677V771.424c0-12.774-10.356-23.13-23.128-23.13-24.753 0-64.209.378-104.126.761-246.031 2.355-513.74 4.918-718.29-105.957-7.796-4.226-15.183-8.418-22.136-12.57a600.774 600.774 0 0 1-19.947-12.417 23.028 23.028 0 0 0-14.4-5.03c-12.773 0-23.129 10.356-23.129 23.129v473.253c.007 7.52 3.675 14.893 10.428 19.33l.055-.084c220.837 145.104 517.114 142.27 787.778 139.676 30.41-.29 60.41-.579 103.767-.579 12.772 0 23.128-10.355 23.128-23.129z"/><path id="_374910144" class="fil1" d="M992.55 987.517c1.844-32.765 15.958-61.603 37.847-82.264 21.857-20.63 51.461-33.064 84.318-33.065v-.045c2.104 0 4.553.078 7.34.235 35.516 1.998 67.63 18.16 90.838 42.672 23.253 24.561 37.635 57.504 37.635 93 0 2.129-.078 4.57-.232 7.31-1.843 32.765-15.96 61.602-37.848 82.264-21.856 20.628-51.46 33.063-84.318 33.064v.045c-2.103 0-4.553-.078-7.34-.234-35.474-1.995-67.582-18.165-90.814-42.693l-.023.021-.02-.02-.021.02c-.21-.222-.409-.45-.598-.683-22.874-24.486-36.995-57.149-36.995-92.318 0-2.127.078-4.57.231-7.309zm291.005 73.945v-23.13h167.087v23.13h-167.087zm157.112 91.735c2.203-10.231 7.351-19.396 14.505-26.55 7.074-7.072 16.111-12.185 26.203-14.43V903.885c-10.091-2.244-19.13-7.357-26.203-14.43-7.071-7.07-12.185-16.107-14.43-26.198-23.353.017-37.758.091-52.293.164-198.043 1.01-406.626 2.054-587.912-84.726a53.674 53.674 0 0 1-12.863 20.619c-7.073 7.072-16.11 12.185-26.202 14.43v208.333c10.092 2.244 19.13 7.357 26.202 14.43 8.06 8.06 13.578 18.674 15.2 30.492 194.088 98.804 424.376 92.614 637.793 86.2zm-157.112-198.559h167.087v23.13h-167.087v-23.13zm-490.489-79.57 167.087 46.167-6.143 22.224-167.087-46.165 6.143-22.225zm0 83.694 167.087 46.166-6.143 22.224-167.087-46.165 6.143-22.225z"/><path id="_374910672" class="fil1" d="M1120.22 929.07c10.224.705 20.035 4.505 28.677 10.848 8.279 6.076 15.495 14.513 20.93 24.778l-20.417 10.75c-3.77-7.116-8.647-12.873-14.154-16.916-5.144-3.775-10.818-6.025-16.573-6.421-.458-.032-1.1-.048-1.912-.048-8.683 0-16.657 4.28-22.734 11.409-4.471 5.244-7.94 11.978-10.008 19.73l22.881 1.577-1.153 17.278-23.876-1.645c.004.94.024 1.874.063 2.804l24.966 1.72-1.153 17.279-20.806-1.434c2.093 6.763 5.18 12.9 9.018 18.085 6.93 9.363 16.23 15.501 26.251 16.192 6.397.44 12.559-1.41 17.891-5.138 5.729-4.006 10.624-10.222 14.052-18.203l21.23 9.126c-5.119 11.919-12.827 21.48-22.091 27.958-9.662 6.755-20.892 10.105-32.619 9.295-17.114-1.18-32.384-10.839-43.236-25.497-6.953-9.395-12.12-20.895-14.748-33.49l-15.415-1.062 1.152-17.279 12.326.85a78.314 78.314 0 0 1 .002-2.8l-13.48-.93 1.152-17.278 14.26.983c2.747-12.927 8.303-24.314 15.813-33.12 10.411-12.208 24.505-19.54 40.262-19.54.963 0 2.108.047 3.449.139zm107.182 78.98c0-29.415-11.93-56.726-31.219-77.098-19.332-20.422-45.992-33.882-75.389-35.535-1.712-.096-3.74-.144-6.075-.144v-.045c-26.721 0-50.773 10.09-68.508 26.829-17.702 16.709-29.12 40.096-30.618 66.726a111.7 111.7 0 0 0-.142 6.043c0 29.159 11.725 56.247 30.717 76.563l.543.537-.041.046c19.305 20.39 45.962 33.832 75.39 35.487 1.712.096 3.739.145 6.074.145v.045c26.721 0 50.773-10.09 68.509-26.83 17.7-16.709 29.12-40.096 30.617-66.725.094-1.671.142-3.684.142-6.044z"/></g></g></svg>